<svg width="439" height="439" viewBox="0 0 439 439" fill="none" xmlns="http://www.w3.org/2000/svg">
<path d="M409.133 109.203C389.525 75.611 362.928 49.014 329.335 29.407C295.736 9.801 259.058 0 219.273 0C179.492 0 142.803 9.801 109.21 29.407C75.615 49.011 49.018 75.608 29.41 109.203C9.801 142.8 0 179.489 0 219.267C0 259.047 9.804 295.73 29.407 329.329C49.014 362.921 75.611 389.518 109.206 409.127C142.803 428.732 179.489 438.534 219.269 438.534C259.049 438.534 295.739 428.732 329.334 409.127C362.927 389.525 389.523 362.921 409.129 329.329C428.732 295.733 438.532 259.045 438.532 219.267C438.533 179.485 428.732 142.795 409.133 109.203Z" fill="#A8A8A8"/>
<path d="M246.656 194.859C246.188 208.641 243.656 221.438 239.062 233.25C234.469 244.969 228.094 254.016 219.938 260.391C211.875 266.672 202.5 269.812 191.812 269.812C182.719 269.812 175.312 267.422 169.594 262.641C163.875 257.859 160.078 251.156 158.203 242.531C148.078 260.719 134.109 269.812 116.297 269.812C103.172 269.812 93.375 264.141 86.9062 252.797C80.4375 241.453 78.0469 226.172 79.7344 206.953C81.1406 191.672 84.6094 178.078 90.1406 166.172C95.7656 154.172 103.031 144.844 111.938 138.188C120.938 131.438 130.547 128.062 140.766 128.062C147.984 128.062 154.312 129.094 159.75 131.156C165.188 133.125 171.516 137.156 178.734 143.25L171.562 223.406C170.625 234.281 171.984 242.719 175.641 248.719C179.391 254.719 185.344 257.719 193.5 257.719C205.031 257.719 214.359 252.094 221.484 240.844C228.703 229.5 232.734 214.172 233.578 194.859C235.359 156.891 228.141 128.344 211.922 109.219C195.703 90 171.141 80.3906 138.234 80.3906C118.453 80.3906 100.594 85.3594 84.6562 95.2969C68.8125 105.141 56.2969 119.109 47.1094 137.203C37.9219 155.297 32.7656 176.156 31.6406 199.781C30.5156 223.406 33.6094 244.219 40.9219 262.219C48.3281 280.125 59.4375 293.906 74.25 303.562C89.1562 313.219 106.875 318.047 127.406 318.047C136.031 318.047 144.516 317.016 152.859 314.953C161.203 312.891 168.188 310.219 173.812 306.938L178.172 318.188C172.828 321.75 165.375 324.703 155.812 327.047C146.25 329.484 136.594 330.703 126.844 330.703C103.406 330.703 83.25 325.406 66.375 314.812C49.5 304.312 36.8438 289.125 28.4062 269.25C20.0625 249.469 16.4531 226.312 17.5781 199.781C18.7031 173.719 24.4219 150.656 34.7344 130.594C45.1406 110.438 59.3438 94.875 77.3438 83.9062C95.3438 72.8437 115.828 67.3125 138.797 67.3125C162.703 67.3125 182.953 72.3281 199.547 82.3594C216.141 92.2969 228.422 106.875 236.391 126.094C244.359 145.312 247.781 168.234 246.656 194.859ZM94.6406 226.781C95.6719 236.156 98.2969 243.422 102.516 248.578C106.734 253.641 112.312 256.172 119.25 256.172C136.594 256.172 149.391 244.219 157.641 220.312L163.969 147.75C157.688 143.156 150.281 140.859 141.75 140.859C131.344 140.859 122.297 145.031 114.609 153.375C107.016 161.625 101.438 173.062 97.875 187.688C94.3125 202.219 93.2344 215.25 94.6406 226.781Z" transform="translate(88 23)" fill="white"/>
</svg>
